<?xml version="1.0" encoding="iso-8859-1"?>
<!-- Generator: Adobe Illustrator 16.0.0, SVG Export Plug-In . SVG Version: 6.00 Build 0)  -->
<!DOCTYPE svg PUBLIC "-//W3C//DTD SVG 1.1//EN" "http://www.w3.org/Graphics/SVG/1.1/DTD/svg11.dtd">
<svg version="1.1" id="Capa_1" xmlns="http://www.w3.org/2000/svg" xmlns:xlink="http://www.w3.org/1999/xlink" x="0px" y="0px"
	 width="372.322px" height="372.322px" viewBox="0 0 372.322 372.322" style="enable-background:new 0 0 372.322 372.322;"
	 xml:space="preserve">
<g>
	<g id="Artwork_33_">
		<g id="Layer_5_33_">
			<g>
				<path d="M264.967,180.418c-9.65,3.048-13.297,12.837-14.746,13.295c-1.268,0.399-9.623-5.6-19.71-2.413
					c-9.812,3.098-15.269,13.72-12.697,23.686c1.451,5.627,4.566,9.276,8.286,12.298c7.43,6.035,35.188,17.451,39.809,15.992
					c4.719-1.49,20.711-26.646,23.34-35.933c1.311-4.632,1.764-9.387-0.281-14.827C285.348,182.882,274.781,177.319,264.967,180.418
					z"/>
				<path d="M217.578,232.567c-6.576-2.983-14.578-0.501-17.908,5.905c-3.276,6.301-0.229,12.966-0.721,13.912
					c-0.432,0.828-7.553,1.997-10.978,8.582c-3.331,6.404-0.768,14.382,5.452,18.051c3.512,2.072,6.867,2.337,10.213,1.991
					c6.682-0.692,26.115-8.801,27.686-11.816c1.602-3.08-2.945-23.496-6.248-29.407
					C223.426,236.837,221.291,234.254,217.578,232.567z"/>
				<path d="M370.928,219.357L245.391,8.009c-2.809-4.729-8.975-6.299-13.704-3.49l-64.659,38.414
					c-4.847-5.507-15.251-4.433-27.358-4.167c-16.545,0.362-29.993-0.938-29.653,14.547c0.186,8.481,6.309,15.664,6.309,15.664
					c0.696,0.816,2.398,2.778,0.556,3.748L4.885,139.26c-4.728,2.809-6.299,8.977-3.49,13.705l125.537,211.347
					c2.809,4.73,8.976,6.3,13.704,3.49l226.802-134.74C372.166,230.255,373.736,224.087,370.928,219.357z M342.77,226.781
					L146.917,343.136c-4.729,2.809-10.895,1.238-13.704-3.49L26.063,159.246c-2.809-4.729-1.238-10.896,3.49-13.705l87.685-52.093
					c0,0,1.61-1.006,1.492,0.25c-0.063,0.666-0.293,2.66-0.293,2.66c-0.422,3.826,2.383,6.889,6.232,6.804l2.143-0.047
					c3.849-0.084,7.443,2.966,7.986,6.776c0,0,2.856,20.034,6.867,19.945c4.011-0.088,5.987-20.227,5.987-20.227
					c0.376-3.832,3.833-7.035,7.682-7.12l2.143-0.047c3.849-0.084,6.517-3.267,5.928-7.071l-2.323-15.009
					c-0.589-3.805,3.32-14.945,5.65-16.318c18.303-10.79,58.674-34.857,58.674-34.857c4.729-2.809,10.895-1.238,13.703,3.49
					l107.15,180.398C349.068,217.806,347.498,223.973,342.77,226.781z"/>
				<path d="M238.846,104.27c-2.537-4.272-8.059-5.681-12.333-3.141L90.676,181.828c-4.273,2.538-5.68,8.062-3.141,12.334
					c1.682,2.832,4.674,4.404,7.746,4.404c1.563,0,3.147-0.407,4.588-1.264l135.836-80.7
					C239.979,114.065,241.385,108.543,238.846,104.27z"/>
				<path d="M261.859,143.008c-2.537-4.273-8.059-5.681-12.334-3.141l-135.837,80.699c-4.273,2.538-5.68,8.062-3.141,12.334
					c1.682,2.832,4.675,4.404,7.746,4.404c1.564,0,3.147-0.407,4.588-1.265l135.835-80.699
					C262.992,152.804,264.398,147.281,261.859,143.008z"/>
			</g>
		</g>
	</g>
</g>
<g>
</g>
<g>
</g>
<g>
</g>
<g>
</g>
<g>
</g>
<g>
</g>
<g>
</g>
<g>
</g>
<g>
</g>
<g>
</g>
<g>
</g>
<g>
</g>
<g>
</g>
<g>
</g>
<g>
</g>
</svg>
